<svg xmlns="http://www.w3.org/2000/svg" width="127.339" height="40.788" viewBox="0 0 127.339 40.788">
  <g id="logo-rappi4" transform="translate(0 -12.212)">
    <path id="Caminho_553" data-name="Caminho 553" d="M33.451,19.42a1.292,1.292,0,0,0-.91-1.163,8.619,8.619,0,0,0-2.279-.628,19.675,19.675,0,0,0-2.982-.21c-1.045,0-2.07.016-3.095.048-.921,1.457-2,3.333-3.214,5.629q-1.934,3.678-3.6,7.49a26.315,26.315,0,0,0,6.194-1.838,27.367,27.367,0,0,0,5.125-2.885,16.241,16.241,0,0,0,3.484-3.3,5.378,5.378,0,0,0,1.275-3.141m-15.4,17.54A28.43,28.43,0,0,0,20.7,40.448a19.343,19.343,0,0,0,8.221,5.513,17.244,17.244,0,0,0,5.762.907,6.713,6.713,0,0,1-1.207,2.722,5.937,5.937,0,0,1-2.368,1.931,6.131,6.131,0,0,1-3.326.418,8.7,8.7,0,0,1-4.007-1.79,22.2,22.2,0,0,1-4.442-4.7,45.671,45.671,0,0,1-4.646-8.3q-.8,2.091-1.457,4.234-.608,1.977-1.047,4a31.148,31.148,0,0,0-.57,3.583,12.785,12.785,0,0,0,.024,2.977,7.608,7.608,0,0,1-1.869-.256A5.459,5.459,0,0,1,7.9,50.8a4.946,4.946,0,0,1-1.435-1.675A5.338,5.338,0,0,1,5.9,46.542a16.986,16.986,0,0,1,.934-5.024A62.131,62.131,0,0,1,9.22,35.285a6.306,6.306,0,0,1-2.005-2.257,6.792,6.792,0,0,1-.727-3.233,21.73,21.73,0,0,0,4.964,1.024q1.019-1.986,2.232-3.862,1.23-1.908,2.46-3.675,1.154-1.667,2.413-3.257,1.185-1.488,2.1-2.606a29.465,29.465,0,0,0-5.512.885A27.778,27.778,0,0,0,9.448,20.42a21.575,21.575,0,0,0-4.9,3.35,10.8,10.8,0,0,0-3.029,4.536,8.8,8.8,0,0,1-1.48-5.4,6.913,6.913,0,0,1,1.936-4.025,13.073,13.073,0,0,1,4.281-2.838,32.719,32.719,0,0,1,5.535-1.814,44.66,44.66,0,0,1,5.692-.954Q20.288,13,22.292,13a40.8,40.8,0,0,1,4.9.28,14.108,14.108,0,0,1,4.03,1.046,6.8,6.8,0,0,1,2.756,2.14A5.874,5.874,0,0,1,35,20.071a13.4,13.4,0,0,1-1.526,6.28,18.617,18.617,0,0,1-3.962,5.165,21.6,21.6,0,0,1-5.466,3.652,20,20,0,0,1-5.99,1.792" fill="#fefefe" fill-rule="evenodd"/>
    <path id="Caminho_554" data-name="Caminho 554" d="M50.506,36.376l-1.7,1.7q-.749.753-1.53,1.474-.693.635-1.17,1.042c-.32.272-.526.408-.623.408a3.417,3.417,0,0,1-1.29-.25,5.26,5.26,0,0,1-1.149-.634,3.326,3.326,0,0,1-.836-.862,1.688,1.688,0,0,1-.31-.929,3,3,0,0,1,.406-1.428,13.018,13.018,0,0,1,.86-1.383q.455-.633.79-1.065c.222-.287.287-.43.191-.43a3.85,3.85,0,0,0-1,.725q-1.033.877-2.034,1.79-1.224,1.115-2.414,2.267Q37.451,40,36.543,41a10.456,10.456,0,0,1-1.1-.091,5.286,5.286,0,0,1-1.53-.43,4.108,4.108,0,0,1-1.34-.953,2.389,2.389,0,0,1-.573-1.7,8.373,8.373,0,0,1,.43-2.357,17.417,17.417,0,0,1,1.22-2.924,27.47,27.47,0,0,1,1.865-3.06,16.39,16.39,0,0,1,2.39-2.742,13.37,13.37,0,0,1,2.774-1.972A6.322,6.322,0,0,1,43.668,24a4.8,4.8,0,0,1,1.219.2,5.5,5.5,0,0,1,1.434.635,4.63,4.63,0,0,1,1.2,1.065,2.274,2.274,0,0,1,.5,1.45A5.618,5.618,0,0,1,47.9,28.6c-.08.348-.151.642-.215.884q-.192.454-.335.771l-1.243-.544a3.829,3.829,0,0,0,.192-1.405,2.024,2.024,0,0,0-.36-.952,1.265,1.265,0,0,0-1.123-.454,3.281,3.281,0,0,0-2.032.816A11.742,11.742,0,0,0,40.8,29.779a23.412,23.412,0,0,0-1.768,2.676,24.878,24.878,0,0,0-1.34,2.674A11.636,11.636,0,0,0,37,37.192c-.111.544-.056.816.169.816a22.423,22.423,0,0,1,1.721-1.768q1.235-1.169,2.534-2.267a31.039,31.039,0,0,1,2.535-1.95,3.8,3.8,0,0,1,1.769-.815,2.324,2.324,0,0,1,1,.227,4.054,4.054,0,0,1,.86.544,2.374,2.374,0,0,1,.6.725,1.59,1.59,0,0,1,.216.725,2.451,2.451,0,0,1-.479,1.156q-.5.786-1.052,1.542-.521.72-1.028,1.45-.455.659-.359.839l6.838-6.664H55q-2.234,2.325-4.494,4.624" fill="#fefefe" fill-rule="evenodd"/>
    <path id="Caminho_555" data-name="Caminho 555" d="M73,32.8c-.063,0-.093.03-.093.09L69.922,35.9q-.14.139-.652.638c-.342.336-.785.73-1.33,1.187s-1.165.942-1.864,1.459A19.356,19.356,0,0,1,63.862,40.6a16.437,16.437,0,0,1-2.378,1.071,7.02,7.02,0,0,1-2.378.434h-.047a4.567,4.567,0,0,1-2.19-.457,5.278,5.278,0,0,1-1.353-1,4.3,4.3,0,0,1-.84-1.46,4.941,4.941,0,0,0,2.542-.888,17.452,17.452,0,0,0,2.82-2.234A30.231,30.231,0,0,0,62.7,33.14a30.85,30.85,0,0,0,2.1-2.918,8.662,8.662,0,0,0,1.072-2.234q.232-.89-.373-.89a3.327,3.327,0,0,0-1.77.867,23.211,23.211,0,0,0-2.5,2.3q-1.5,1.571-2.89,3.237-1.525,1.814-2.938,3.717-1.372,1.842-2.634,3.762Q51.695,42.6,50.76,44.29a39.53,39.53,0,0,0-1.4,4.971A8.534,8.534,0,0,0,49.269,53a13.86,13.86,0,0,1-1.982-.137,5.056,5.056,0,0,1-1.678-.524,3.081,3.081,0,0,1-1.167-1.094,3.344,3.344,0,0,1-.442-1.8,10.883,10.883,0,0,1,.862-3.513q.864-2.28,2.216-5.016t2.935-5.54q1.465-2.6,3.055-5.131,1.47-2.325,2.564-3.785T57.1,25a1.487,1.487,0,0,1,.584.206,5.754,5.754,0,0,1,.792.5,3.688,3.688,0,0,1,.7.684,1.234,1.234,0,0,1,.3.752q-1.348,2.05-2.54,4.2-1.33,2.37-2.68,4.97l1.024-1.277a19.555,19.555,0,0,1,1.26-1.8q.847-1.093,1.747-2.143.972-1.133,2.006-2.21.973-1.022,2.028-1.962a14.1,14.1,0,0,1,1.818-1.39,2.831,2.831,0,0,1,1.4-.526,3.1,3.1,0,0,1,1.071.229,4.86,4.86,0,0,1,1.142.616,3.774,3.774,0,0,1,.91.934,2.14,2.14,0,0,1,.373,1.231,6.617,6.617,0,0,1-.373,1.938,20.282,20.282,0,0,1-1,2.486Q67,33.821,66.216,35.147a26.58,26.58,0,0,1-1.749,2.622c-.28.4-.31.541-.093.434a6.379,6.379,0,0,0,.91-.594c.388-.287.77-.592,1.142-.911a4.318,4.318,0,0,0,.606-.57l3.357-3.33H73Z" fill="#fefefe" fill-rule="evenodd"/>
    <path id="Caminho_556" data-name="Caminho 556" d="M92,32.8c-.063,0-.093.03-.093.09L88.922,35.9q-.14.139-.652.638c-.342.336-.785.73-1.33,1.187s-1.165.942-1.864,1.459A19.356,19.356,0,0,1,82.862,40.6a16.437,16.437,0,0,1-2.378,1.071,7.02,7.02,0,0,1-2.378.434h-.047a4.567,4.567,0,0,1-2.19-.457,5.278,5.278,0,0,1-1.353-1,4.3,4.3,0,0,1-.84-1.46,4.941,4.941,0,0,0,2.542-.888,17.452,17.452,0,0,0,2.82-2.234A30.231,30.231,0,0,0,81.7,33.14a30.85,30.85,0,0,0,2.1-2.918,8.662,8.662,0,0,0,1.072-2.234q.232-.89-.373-.89a3.327,3.327,0,0,0-1.77.867,23.211,23.211,0,0,0-2.5,2.3q-1.5,1.571-2.89,3.237-1.525,1.814-2.938,3.717-1.372,1.842-2.634,3.762-1.07,1.611-2,3.306a39.531,39.531,0,0,0-1.4,4.971A8.534,8.534,0,0,0,68.269,53a13.86,13.86,0,0,1-1.982-.137,5.056,5.056,0,0,1-1.678-.524,3.081,3.081,0,0,1-1.167-1.094,3.344,3.344,0,0,1-.442-1.8,10.883,10.883,0,0,1,.862-3.513q.864-2.28,2.216-5.016t2.935-5.54q1.465-2.6,3.055-5.131,1.47-2.325,2.564-3.785T76.1,25a1.487,1.487,0,0,1,.584.206,5.754,5.754,0,0,1,.792.5,3.688,3.688,0,0,1,.7.684,1.234,1.234,0,0,1,.3.752q-1.348,2.05-2.54,4.2-1.331,2.37-2.68,4.97l1.024-1.277a19.554,19.554,0,0,1,1.26-1.8q.847-1.093,1.747-2.143.972-1.133,2.006-2.21.973-1.022,2.028-1.962a14.1,14.1,0,0,1,1.818-1.39,2.831,2.831,0,0,1,1.4-.526,3.1,3.1,0,0,1,1.071.229,4.86,4.86,0,0,1,1.142.616,3.774,3.774,0,0,1,.91.934,2.14,2.14,0,0,1,.373,1.231,6.617,6.617,0,0,1-.373,1.938,20.282,20.282,0,0,1-1,2.486Q86,33.821,85.216,35.147a26.58,26.58,0,0,1-1.749,2.622c-.28.4-.31.541-.093.434a6.379,6.379,0,0,0,.91-.594c.388-.287.77-.592,1.142-.911a4.318,4.318,0,0,0,.606-.57l3.357-3.33H92Z" fill="#fefefe" fill-rule="evenodd"/>
    <path id="Caminho_557" data-name="Caminho 557" d="M99.166,22.656a2.549,2.549,0,0,1-.765-.276c-.391-.185-.8-.391-1.22-.62s-.8-.445-1.134-.645a1.966,1.966,0,0,1-.5-.344c0-.03.1-.33.306-.9s.436-1.241.7-2.023q.41-1.229.741-2.482A13.634,13.634,0,0,0,97.726,13a3.661,3.661,0,0,1,1.178.276,6.689,6.689,0,0,1,1.418.736,5.487,5.487,0,0,1,1.177,1.08,2.122,2.122,0,0,1,.5,1.357,5.631,5.631,0,0,1-.37,1.793A17.942,17.942,0,0,1,99.8,21.966c-.305.46-.517.69-.632.69Zm-.48,8.965h2.442q-1.922,2.36-3.882,4.69-.74.872-1.5,1.724-.686.769-1.418,1.494c-.436.43-.822.781-1.155,1.057a1.508,1.508,0,0,1-.72.414,5.39,5.39,0,0,1-2.029-.345,4.254,4.254,0,0,1-1.374-.85,3.99,3.99,0,0,1-.785-1.012A1.973,1.973,0,0,1,88,37.92a11.55,11.55,0,0,1,.545-3.15,31.28,31.28,0,0,1,1.418-3.839,39.625,39.625,0,0,1,1.962-3.862,30.791,30.791,0,0,1,2.181-3.31,3.958,3.958,0,0,1,1.133.184,5.415,5.415,0,0,1,1.135.483,3.544,3.544,0,0,1,.894.712,1.3,1.3,0,0,1,.37.874,31.414,31.414,0,0,0-2.856,4.85,36.638,36.638,0,0,0-1.744,4.3,7.988,7.988,0,0,0-.524,2.69q.064.849.807.021l5.365-6.252Z" fill="#fefefe" fill-rule="evenodd"/>
    <g id="Grupo_1298" data-name="Grupo 1298" transform="translate(97 12)">
      <path id="Caminho_558" data-name="Caminho 558" d="M30.339,2.982a27.075,27.075,0,0,0-1.8,2.61q-1.172,1.9-2.237,3.855-1.28,2.343-2.471,4.732-1.3,2.6-2.471,5.264-1.19,2.7-2.215,5.449-.979,2.6-1.725,5.286A39.473,39.473,0,0,0,16.4,34.957a13.951,13.951,0,0,0-.093,3.9,7.338,7.338,0,0,1-1.911-.277,6.015,6.015,0,0,1-1.912-.9,4.969,4.969,0,0,1-1.468-1.663,5.169,5.169,0,0,1-.583-2.562,12.4,12.4,0,0,1,.374-2.794,32.876,32.876,0,0,1,1.024-3.44q-1.212.233-2.936.416a37.691,37.691,0,0,1-3.963.184A2.572,2.572,0,0,1,3.9,27.454,5.773,5.773,0,0,1,2.5,26.37a7.58,7.58,0,0,1-1.234-1.709,4.63,4.63,0,0,1-.536-2.24,6.659,6.659,0,0,1,.98-2.7q.977-1.824,2.47-4.087t3.287-4.71q1.7-2.325,3.45-4.617,1.457-1.914,2.937-3.81.893-1.128,1.748-2.285a3.862,3.862,0,0,1,1.445.3,7.285,7.285,0,0,1,1.33.693,4.721,4.721,0,0,1,.954.83,1.255,1.255,0,0,1,.373.717q-2.915,3.677-5.57,7.549-2.258,3.284-4.36,6.671-1.817,2.957-2.844,4.9A9.852,9.852,0,0,0,5.91,24.13c0,.217.2.355.606.416a8.19,8.19,0,0,0,1.585.046q.979-.045,2.238-.115t2.61-.07q1.184-2.724,2.518-5.378,1.377-2.755,2.914-5.426,1.448-2.52,2.984-4.987,1.467-2.355,2.68-4.109T26.12,1.713Q26.981.675,27.262.675A3.068,3.068,0,0,1,28.428.9a3.847,3.847,0,0,1,.98.578,3.074,3.074,0,0,1,.674.761,1.468,1.468,0,0,1,.257.739" fill="#fefefe" fill-rule="evenodd"/>
    </g>
  </g>
</svg>
