<svg xmlns="http://www.w3.org/2000/svg" width="103.467" height="32.83" viewBox="0 0 103.467 32.83">
  <g id="logo-rappi4eats" transform="translate(0 -12.17)">
    <path id="Caminho_1" data-name="Caminho 1" d="M26.761,18.1a1.029,1.029,0,0,0-.729-.924,6.97,6.97,0,0,0-1.822-.5,15.889,15.889,0,0,0-2.386-.166q-1.295,0-2.46.037-1.13,1.739-2.587,4.474Q15.23,23.948,13.9,26.978a21.154,21.154,0,0,0,4.956-1.46,22.076,22.076,0,0,0,4.1-2.293A13,13,0,0,0,25.741,20.6a4.258,4.258,0,0,0,1.02-2.5M14.445,32.045a22.613,22.613,0,0,0,2.114,2.772A15.471,15.471,0,0,0,23.135,39.2a13.9,13.9,0,0,0,4.61.721,5.312,5.312,0,0,1-.966,2.163,4.744,4.744,0,0,1-1.894,1.535,4.946,4.946,0,0,1-2.66.333,6.992,6.992,0,0,1-3.207-1.424,17.661,17.661,0,0,1-3.553-3.735,36.24,36.24,0,0,1-3.717-6.6q-.642,1.661-1.165,3.365-.487,1.571-.838,3.18a24.328,24.328,0,0,0-.456,2.847,10.062,10.062,0,0,0,.019,2.367,6.13,6.13,0,0,1-1.495-.2,4.38,4.38,0,0,1-1.494-.7,3.943,3.943,0,0,1-1.148-1.332,4.221,4.221,0,0,1-.455-2.052,13.431,13.431,0,0,1,.747-3.993,49.129,49.129,0,0,1,1.913-4.955,5.023,5.023,0,0,1-1.6-1.8,5.366,5.366,0,0,1-.582-2.57,17.472,17.472,0,0,0,3.972.815,35.481,35.481,0,0,1,1.785-3.07q.984-1.515,1.968-2.921t1.93-2.589q.95-1.183,1.677-2.071a23.607,23.607,0,0,0-4.409.7A22.344,22.344,0,0,0,7.558,18.9a17.265,17.265,0,0,0-3.917,2.663,8.577,8.577,0,0,0-2.423,3.606,6.965,6.965,0,0,1-1.184-4.29,5.481,5.481,0,0,1,1.549-3.2,10.48,10.48,0,0,1,3.424-2.255A26.294,26.294,0,0,1,9.435,13.98a35.939,35.939,0,0,1,4.554-.758Q16.231,13,17.834,13a32.757,32.757,0,0,1,3.917.222,11.35,11.35,0,0,1,3.224.832,5.425,5.425,0,0,1,2.2,1.7A4.649,4.649,0,0,1,28,18.621a10.607,10.607,0,0,1-1.22,4.992,14.81,14.81,0,0,1-3.17,4.1,17.29,17.29,0,0,1-4.373,2.9,16.088,16.088,0,0,1-4.792,1.424" fill="#e86e5a" fill-rule="evenodd"/>
    <path id="Caminho_2" data-name="Caminho 2" d="M41.287,32.192l-1.4,1.4q-.69.69-1.263,1.214t-.968.858q-.395.336-.514.336a2.843,2.843,0,0,1-1.066-.205,4.349,4.349,0,0,1-.949-.523,2.743,2.743,0,0,1-.69-.71,1.386,1.386,0,0,1-.257-.765,2.463,2.463,0,0,1,.336-1.176,10.723,10.723,0,0,1,.71-1.139q.375-.521.653-.877c.183-.236.237-.355.158-.355a3.174,3.174,0,0,0-.83.6q-.853.722-1.68,1.474-1.011.918-1.994,1.867-.917.877-1.777,1.811a8.5,8.5,0,0,1-.91-.075,4.377,4.377,0,0,1-1.263-.354,3.394,3.394,0,0,1-1.106-.785,1.962,1.962,0,0,1-.474-1.4,6.839,6.839,0,0,1,.356-1.94,14.239,14.239,0,0,1,1.007-2.409,22.81,22.81,0,0,1,1.54-2.52,13.51,13.51,0,0,1,1.975-2.258,11.038,11.038,0,0,1,2.291-1.624A5.24,5.24,0,0,1,35.639,22a3.985,3.985,0,0,1,1.007.168,4.516,4.516,0,0,1,1.185.523,3.832,3.832,0,0,1,.987.877,1.869,1.869,0,0,1,.415,1.195,4.686,4.686,0,0,1-.1,1.026c-.067.287-.126.529-.178.728-.106.25-.2.461-.277.635L37.653,26.7a3.166,3.166,0,0,0,.158-1.157,1.663,1.663,0,0,0-.3-.784,1.052,1.052,0,0,0-.929-.374,2.715,2.715,0,0,0-1.678.672,9.689,9.689,0,0,0-1.64,1.7,19.276,19.276,0,0,0-1.46,2.2,20.741,20.741,0,0,0-1.108,2.2,9.522,9.522,0,0,0-.573,1.7c-.092.447-.046.67.14.67a18.48,18.48,0,0,1,1.421-1.455q1.02-.963,2.094-1.867a25.636,25.636,0,0,1,2.094-1.6,3.143,3.143,0,0,1,1.461-.672,1.932,1.932,0,0,1,.83.187,3.382,3.382,0,0,1,.71.448,1.966,1.966,0,0,1,.494.6,1.3,1.3,0,0,1,.178.6,2.017,2.017,0,0,1-.4.952q-.395.615-.869,1.27t-.85,1.194c-.25.361-.348.592-.3.69l5.649-5.487H45q-1.846,1.915-3.713,3.808" fill="#e86e5a" fill-rule="evenodd"/>
    <path id="Caminho_3" data-name="Caminho 3" d="M60,28.406a.067.067,0,0,0-.077.075l-2.47,2.472-.54.524q-.425.414-1.1.975t-1.543,1.2a16.127,16.127,0,0,1-1.832,1.162,13.735,13.735,0,0,1-1.968.88,5.86,5.86,0,0,1-1.968.356h-.04a3.8,3.8,0,0,1-1.812-.375,4.355,4.355,0,0,1-1.12-.824,3.532,3.532,0,0,1-.694-1.2,4.11,4.11,0,0,0,2.1-.73,14.427,14.427,0,0,0,2.334-1.835,24.9,24.9,0,0,0,2.2-2.4,25.345,25.345,0,0,0,1.736-2.4,7.107,7.107,0,0,0,.887-1.836q.192-.73-.308-.73a2.757,2.757,0,0,0-1.466.712,19.065,19.065,0,0,0-2.065,1.891q-1.239,1.291-2.393,2.66-1.261,1.489-2.43,3.052-1.135,1.513-2.18,3.09-.886,1.323-1.66,2.716a32.419,32.419,0,0,0-1.157,4.084A6.964,6.964,0,0,0,40.36,45a11.636,11.636,0,0,1-1.64-.112,4.207,4.207,0,0,1-1.389-.43,2.542,2.542,0,0,1-.965-.9A2.729,2.729,0,0,1,36,42.079a8.892,8.892,0,0,1,.714-2.885q.816-2.1,1.833-4.12,1.152-2.308,2.43-4.551,1.212-2.138,2.528-4.215Q44.72,24.4,45.627,23.2T46.842,22a1.249,1.249,0,0,1,.483.169,4.638,4.638,0,0,1,.655.413,3.053,3.053,0,0,1,.58.561,1.018,1.018,0,0,1,.25.618q-1.116,1.683-2.1,3.447-1.142,2.024-2.218,4.083l.848-1.05a16.09,16.09,0,0,1,1.042-1.48q.655-.841,1.447-1.76t1.66-1.816q.867-.9,1.678-1.611a11.554,11.554,0,0,1,1.5-1.142A2.354,2.354,0,0,1,53.826,22a2.58,2.58,0,0,1,.887.188,3.989,3.989,0,0,1,.945.506,3.1,3.1,0,0,1,.754.767,1.752,1.752,0,0,1,.308,1.012,5.409,5.409,0,0,1-.308,1.592,16.6,16.6,0,0,1-.83,2.041q-.55,1.14-1.2,2.23a22.026,22.026,0,0,1-1.447,2.153q-.346.488-.077.356a5.4,5.4,0,0,0,.753-.487c.321-.237.637-.487.945-.749a3.513,3.513,0,0,0,.5-.469l2.778-2.734H60Z" fill="#e86e5a" fill-rule="evenodd"/>
    <path id="Caminho_4" data-name="Caminho 4" d="M75,28.406a.067.067,0,0,0-.077.075l-2.47,2.472-.54.524q-.424.414-1.1.975t-1.543,1.2a16.127,16.127,0,0,1-1.832,1.162,13.735,13.735,0,0,1-1.968.88,5.86,5.86,0,0,1-1.968.356h-.04a3.8,3.8,0,0,1-1.812-.375,4.355,4.355,0,0,1-1.12-.824,3.532,3.532,0,0,1-.694-1.2,4.11,4.11,0,0,0,2.1-.73,14.427,14.427,0,0,0,2.334-1.835,24.9,24.9,0,0,0,2.2-2.4,25.347,25.347,0,0,0,1.736-2.4,7.107,7.107,0,0,0,.887-1.836q.192-.73-.308-.73a2.757,2.757,0,0,0-1.466.712,19.066,19.066,0,0,0-2.065,1.891q-1.239,1.291-2.393,2.66-1.261,1.489-2.43,3.052-1.135,1.513-2.18,3.09-.886,1.323-1.66,2.716a32.421,32.421,0,0,0-1.157,4.084A6.964,6.964,0,0,0,55.36,45a11.636,11.636,0,0,1-1.64-.112,4.207,4.207,0,0,1-1.389-.43,2.542,2.542,0,0,1-.965-.9A2.729,2.729,0,0,1,51,42.079a8.892,8.892,0,0,1,.714-2.885q.816-2.1,1.833-4.12,1.152-2.308,2.43-4.551,1.212-2.138,2.528-4.215Q59.72,24.4,60.627,23.2T61.842,22a1.249,1.249,0,0,1,.483.169,4.638,4.638,0,0,1,.655.413,3.053,3.053,0,0,1,.58.561,1.018,1.018,0,0,1,.25.618q-1.116,1.683-2.1,3.447-1.142,2.024-2.218,4.083l.848-1.05a16.089,16.089,0,0,1,1.042-1.48q.656-.841,1.447-1.76t1.66-1.816q.867-.9,1.678-1.611a11.554,11.554,0,0,1,1.5-1.142A2.354,2.354,0,0,1,68.826,22a2.58,2.58,0,0,1,.887.188,3.989,3.989,0,0,1,.945.506,3.1,3.1,0,0,1,.754.767,1.752,1.752,0,0,1,.308,1.012,5.409,5.409,0,0,1-.308,1.592,16.6,16.6,0,0,1-.83,2.041q-.55,1.14-1.2,2.23a22.023,22.023,0,0,1-1.447,2.153q-.347.488-.077.356a5.4,5.4,0,0,0,.753-.487c.321-.237.637-.487.945-.749a3.514,3.514,0,0,0,.5-.469l2.778-2.734H75Z" fill="#e86e5a" fill-rule="evenodd"/>
    <path id="Caminho_5" data-name="Caminho 5" d="M80.773,20.931a1.93,1.93,0,0,1-.6-.226q-.488-.24-.96-.51-.45-.255-.89-.529a1.536,1.536,0,0,1-.395-.283q0-.037.24-.736t.549-1.662q.308-.963.582-2.04A11.68,11.68,0,0,0,79.642,13a2.75,2.75,0,0,1,.925.227,5.16,5.16,0,0,1,1.114.6,4.356,4.356,0,0,1,.925.888A1.786,1.786,0,0,1,83,15.833a4.812,4.812,0,0,1-.29,1.473,14.108,14.108,0,0,1-.687,1.68,13.929,13.929,0,0,1-.753,1.379c-.24.378-.406.566-.5.566ZM80.4,28.3h1.92q-1.51,1.938-3.051,3.852-.584.717-1.182,1.416t-1.114,1.228q-.515.528-.908.868A1.166,1.166,0,0,1,75.5,36a4.066,4.066,0,0,1-1.594-.283,3.316,3.316,0,0,1-1.08-.7,3.264,3.264,0,0,1-.617-.832A1.673,1.673,0,0,1,72,33.47a9.873,9.873,0,0,1,.428-2.587,26.6,26.6,0,0,1,1.114-3.154,32.884,32.884,0,0,1,1.542-3.172,25.425,25.425,0,0,1,1.714-2.72,2.969,2.969,0,0,1,.89.152,4.123,4.123,0,0,1,.891.4,2.778,2.778,0,0,1,.7.585,1.088,1.088,0,0,1,.291.717,26.094,26.094,0,0,0-2.245,3.985,31.067,31.067,0,0,0-1.37,3.531,6.834,6.834,0,0,0-.411,2.21q.051.7.634.018L80.4,28.3Z" fill="#e86e5a" fill-rule="evenodd"/>
    <g id="Grupo_1" data-name="Grupo 1" transform="translate(79 12)">
      <path id="Caminho_6" data-name="Caminho 6" d="M24.467,2.37A21.345,21.345,0,0,0,23.02,4.445q-.945,1.506-1.8,3.064-.96,1.725-1.993,3.762-1.049,2.067-1.992,4.184-.956,2.138-1.786,4.33-.789,2.069-1.391,4.2a30.986,30.986,0,0,0-.828,3.8,10.964,10.964,0,0,0-.075,3.1,6.043,6.043,0,0,1-1.541-.22,4.883,4.883,0,0,1-1.542-.716,3.957,3.957,0,0,1-1.184-1.321,4.07,4.07,0,0,1-.47-2.037,9.736,9.736,0,0,1,.3-2.22,25.916,25.916,0,0,1,.826-2.735q-.978.184-2.368.33a30.739,30.739,0,0,1-3.2.147,2.108,2.108,0,0,1-.827-.294,4.637,4.637,0,0,1-1.128-.862,6.03,6.03,0,0,1-1-1.358,3.633,3.633,0,0,1-.432-1.78,5.253,5.253,0,0,1,.79-2.147q.787-1.449,1.992-3.248,1.278-1.9,2.65-3.744,1.447-1.945,2.782-3.67t2.37-3.028q.72-.9,1.409-1.815a3.154,3.154,0,0,1,1.165.238,5.977,5.977,0,0,1,1.072.55,3.865,3.865,0,0,1,.77.66,1,1,0,0,1,.3.57q-2.445,3.046-4.492,6-1.821,2.61-3.516,5.3-1.466,2.349-2.293,3.89a7.807,7.807,0,0,0-.827,1.8c0,.172.162.282.489.33a6.752,6.752,0,0,0,1.278.037q.9-.042,1.805-.092,1.052-.056,2.1-.055.955-2.166,2.03-4.275,1.111-2.191,2.35-4.313,1.168-2,2.407-3.964,1.042-1.658,2.161-3.266.978-1.395,1.674-2.22c.463-.55.77-.827.92-.827a2.475,2.475,0,0,1,.94.184,3.075,3.075,0,0,1,.79.459,2.467,2.467,0,0,1,.545.605,1.151,1.151,0,0,1,.207.587" fill="#e86e5a" fill-rule="evenodd"/>
    </g>
  </g>
</svg>
